<?xml version="1.0" encoding="UTF-8"?> <svg xmlns="http://www.w3.org/2000/svg" xmlns:xlink="http://www.w3.org/1999/xlink" width="38px" height="43px" viewBox="0 0 38 43" version="1.1"><title>Icon/ Recommended Ticket Copy 7</title><g id="Icon/-Recommended-Ticket-Copy-7" stroke="none" stroke-width="1" fill="none" fill-rule="evenodd"><g id="Group"><polygon id="Fill-17" fill="#CCE4FF" points="-2.48689958e-14 42.3300018 37.0390015 42.3300018 37.0390015 -7.10542736e-15 -2.48689958e-14 -7.10542736e-15"></polygon><polygon id="Stroke-19" stroke="#0070FF" stroke-width="1.08299994" stroke-linecap="round" stroke-linejoin="round" points="-2.48689958e-14 42.3300018 37.0390015 42.3300018 37.0390015 -7.10542736e-15 -2.48689958e-14 -7.10542736e-15"></polygon><polygon id="Fill-20" fill="#0070FF" points="-2.48689958e-14 42.3300002 37.0390015 42.3300002 37.0390015 36.2370017 -2.48689958e-14 36.2370017"></polygon><path d="M28.271599,2.75300002 L33.4025979,2.75300002 C33.9335978,2.75300002 34.3645977,3.18400009 34.3645977,3.71500015 C34.3645977,4.24600019 33.9335978,4.67700028 33.4025979,4.67700028 L28.271599,4.67700028 C27.7405992,4.67700028 27.3095993,4.24600019 27.3095993,3.71500015 C27.3095993,3.18400009 27.7405992,2.75300002 28.271599,2.75300002" id="Fill-21" fill="#0070FF"></path><path d="M29.3428995,38.3222983 L34.4738984,38.3222983 C35.0048983,38.3222983 35.4358982,38.7532983 35.4358982,39.2842982 C35.4358982,39.8152981 35.0048983,40.2462981 34.4738984,40.2462981 L29.3428995,40.2462981 C28.8118997,40.2462981 28.3808998,39.8152981 28.3808998,39.2842982 C28.3808998,38.7532983 28.8118997,38.3222983 29.3428995,38.3222983" id="Fill-23" fill="#FFFFFF"></path><path d="M2.78529995,38.3222983 L12.8872997,38.3222983 C13.4182994,38.3222983 13.8482996,38.7532983 13.8482996,39.2842982 C13.8482996,39.8152981 13.4182994,40.2462981 12.8872997,40.2462981 L2.78529995,40.2462981 C2.25429997,40.2462981 1.8233,39.8152981 1.8233,39.2842982 C1.8233,38.7532983 2.25429997,38.3222983 2.78529995,38.3222983" id="Fill-24" fill="#FFFFFF"></path></g><path d="M10,1 L36,1 L36,1 L36,11 C36,13.7614237 33.7614237,16 31,16 L10,16 C7.23857625,16 5,13.7614237 5,11 L5,6 C5,3.23857625 7.23857625,1 10,1 Z" id="Rectangle" fill="#28A745"></path><path d="M15.546875,12 L15.546875,10.7322443 L12.1697443,10.7322443 L12.1697443,8.99573864 L15.2805398,8.99573864 L15.2805398,7.72798295 L12.1697443,7.72798295 L12.1697443,5.99502841 L15.5326705,5.99502841 L15.5326705,4.72727273 L10.6321023,4.72727273 L10.6321023,12 L15.546875,12 Z M18.7947384,12 L18.7947384,7.42258523 L18.8480055,7.42258523 L22.012068,12 L23.340193,12 L23.340193,4.72727273 L21.8096532,4.72727273 L21.8096532,9.30113636 L21.7457327,9.30113636 L18.6065282,4.72727273 L17.2570964,4.72727273 L17.2570964,12 L18.7947384,12 Z M27.6846605,12 C28.4232968,12 29.0583584,11.8544034 29.5898451,11.5632102 C30.1213319,11.272017 30.5297126,10.8541667 30.8149872,10.3096591 C31.1002618,9.76515152 31.2428991,9.11410985 31.2428991,8.35653409 C31.2428991,7.60132576 31.1002618,6.95265152 30.8149872,6.41051136 C30.5297126,5.86837121 30.1231074,5.4522964 29.5951718,5.16228693 C29.0672362,4.87227746 28.4375014,4.72727273 27.7059673,4.72727273 L27.7059673,4.72727273 L25.1065355,4.72727273 L25.1065355,12 L27.6846605,12 Z M27.62074,10.6825284 L26.6441775,10.6825284 L26.6441775,6.04474432 L27.6242912,6.04474432 C28.0788366,6.04474432 28.4611756,6.12523674 28.7713082,6.28622159 C29.0814408,6.44720644 29.3152239,6.69815341 29.4726576,7.0390625 C29.6300913,7.37997159 29.7088082,7.81912879 29.7088082,8.35653409 C29.7088082,8.89867424 29.6300913,9.34079072 29.4726576,9.68288352 C29.3152239,10.0249763 29.0808489,10.277107 28.7695326,10.4392756 C28.4582163,10.6014441 28.0752855,10.6825284 27.62074,10.6825284 L27.62074,10.6825284 Z" id="END" fill="#FFFFFF" fill-rule="nonzero" opacity="0.98999995"></path></g></svg> 