<?xml version="1.0" encoding="UTF-8"?> <svg xmlns="http://www.w3.org/2000/svg" xmlns:xlink="http://www.w3.org/1999/xlink" width="38px" height="43px" viewBox="0 0 38 43" version="1.1"><title>Icon/ Recommended Ticket Copy 4lucky</title><g id="Icon/-Recommended-Ticket-Copy-4" stroke="none" stroke-width="1" fill="none" fill-rule="evenodd"><g id="Group" transform="translate(0.000000, 0.413300)"><g id="Clipped" fill="#CCE4FF" fill-rule="nonzero"><polygon id="Path" points="0.542 42.459 37.581 42.459 37.581 0.128 0.542 0.128"></polygon></g><g id="Clipped" stroke="#0070FF" stroke-linecap="round" stroke-linejoin="round" stroke-width="1.083"><polygon id="Path" points="0.542 42.459 37.581 42.459 37.581 0.128 0.542 0.128"></polygon></g><g id="Clipped" transform="translate(0.000000, 36.000000)" fill="#0070FF" fill-rule="nonzero"><polygon id="Path" points="0.542 6.459 37.581 6.459 37.581 0.366 0.542 0.366"></polygon></g><g id="Clipped" transform="translate(27.000000, 2.000000)" fill="#0070FF" fill-rule="nonzero"><path d="M1.8125,0.8806 L6.9435,0.8806 C7.4745,0.8806 7.9055,1.3116 7.9055,1.8426 C7.9055,2.3746 7.4745,2.8056 6.9435,2.8056 L1.8125,2.8056 C1.2815,2.8056 0.8505,2.3746 0.8505,1.8426 C0.8505,1.3116 1.2815,0.8806 1.8125,0.8806" id="Path"></path></g><g id="Clipped" transform="translate(3.000000, 2.000000)" fill="#0070FF" fill-rule="nonzero"><path d="M1.3623,0.8806 L6.4933,0.8806 C7.0243,0.8806 7.4553,1.3116 7.4553,1.8426 C7.4553,2.3746 7.0243,2.8056 6.4933,2.8056 L1.3623,2.8056 C0.8313,2.8056 0.4003,2.3746 0.4003,1.8426 C0.4003,1.3116 0.8313,0.8806 1.3623,0.8806" id="Path"></path></g><g id="Clipped" transform="translate(28.000000, 38.000000)" fill="#FFFFFF" fill-rule="nonzero"><path d="M1.8837,0.4499 L7.0147,0.4499 C7.5467,0.4499 7.9777,0.8809 7.9777,1.4119 C7.9777,1.9429 7.5467,2.3739 7.0147,2.3739 L1.8837,2.3739 C1.3527,2.3739 0.9217,1.9429 0.9217,1.4119 C0.9217,0.8809 1.3527,0.4499 1.8837,0.4499" id="Path"></path></g><g id="Clipped" transform="translate(2.000000, 38.000000)" fill="#FFFFFF" fill-rule="nonzero"><path d="M1.3261,0.4499 L11.4281,0.4499 C11.9591,0.4499 12.3891,0.8809 12.3891,1.4119 C12.3891,1.9429 11.9591,2.3739 11.4281,2.3739 L1.3261,2.3739 C0.7951,2.3739 0.3641,1.9429 0.3641,1.4119 C0.3641,0.8809 0.7951,0.4499 1.3261,0.4499" id="Path"></path></g><g id="Group-5" transform="translate(8.000000, 5.000000)" fill="#28A745" fill-rule="nonzero"><g id="Clipped" transform="translate(0.192000, 4.800000)"><path d="M6.634668,2.6878512 L5.181852,1.2350352 C4.091532,0.1447152 2.273388,0.1447152 1.183068,1.2350352 C0.092748,2.3253552 0.092748,4.1420832 1.183068,5.2324032 L2.165772,6.2136912 C2.419236,6.4685712 2.419236,6.9046992 2.165772,7.1581632 L1.183068,8.1408672 C0.092748,9.2297712 0.092748,11.0464992 1.183068,12.1382352 C2.273388,13.2271392 4.091532,13.2271392 5.181852,12.1382352 L6.634668,10.6840032 L10.632036,6.6866352 L6.634668,2.6878512 Z" id="Path"></path></g><g id="Clipped" transform="translate(1.608000, 11.880000)"><path d="M15.4681008,5.8931088 L9.9796848,0.4061088 L5.9823168,4.4034768 L4.5280848,5.8577088 C3.4377648,6.9480288 3.4377648,8.7647568 4.5280848,9.8550768 C5.6184048,10.9453968 7.4365488,10.9453968 8.5268688,9.8550768 L9.1442448,9.2362848 C8.9998128,9.8182608 8.7803328,10.3634208 8.4546528,10.9085808 C6.8545728,13.5975648 3.6204288,14.9441808 0.6029328,14.1441408 L0.0223728,16.1067168 L0.0577728,16.1067168 C0.8209968,16.3247808 1.5842208,16.3969968 2.3842608,16.3969968 C5.5461888,16.3969968 8.5990848,14.7247008 10.2345648,11.9266848 C10.6706928,11.1634608 10.9977888,10.4016528 11.2158528,9.5647968 L11.5061328,9.8550768 C12.5978688,10.9453968 14.4145968,10.9453968 15.5035008,9.8550768 C16.5598368,8.8015728 16.5598368,6.9848448 15.4681008,5.8931088" id="Path"></path></g><g id="Clipped" transform="translate(11.520000, 4.800000)"><path d="M10.3165512,5.2326864 C11.4082872,4.1423664 11.4082872,2.3256384 10.3165512,1.2339024 C9.2276472,0.1449984 7.4095032,0.1449984 6.3191832,1.2339024 L4.8663672,2.6881344 L0.8689992,6.6869184 L4.8663672,10.6842864 L6.3191832,12.1385184 C7.4095032,13.2274224 9.2276472,13.2274224 10.3165512,12.1385184 C11.4082872,11.0467824 11.4082872,9.2300544 10.3165512,8.1397344 L9.3352632,7.1584464 C9.0817992,6.9035664 9.0817992,6.5042544 9.3352632,6.2139744 L10.3165512,5.2326864 Z" id="Path"></path></g><g id="Clipped" transform="translate(4.800000, 0.048000)"><path d="M12.2761008,1.080312 C11.1857808,-0.011424 9.3676368,-0.011424 8.2787328,1.080312 L6.8245008,2.533128 L5.3702688,1.080312 C4.2813648,-0.011424 2.4632208,-0.011424 1.3729008,1.080312 C0.2825808,2.170632 0.2825808,3.988776 1.3729008,5.07768 L2.8271328,6.531912 L6.8245008,10.52928 L10.8232848,6.531912 L12.2761008,5.07768 C13.3678368,3.950544 13.3678368,2.170632 12.2761008,1.080312" id="Path"></path></g></g></g></g></svg> 