<?xml version="1.0" encoding="UTF-8"?> <svg xmlns="http://www.w3.org/2000/svg" xmlns:xlink="http://www.w3.org/1999/xlink" width="56px" height="63px" viewBox="0 0 56 63" version="1.1"><title>Icon/ Recommended Ticket Copy 3</title><g id="Admin" stroke="none" stroke-width="1" fill="none" fill-rule="evenodd"><g id="iPad-Air/mini-full-screen" transform="translate(-53.000000, -476.000000)"><g id="Icon/-Recommended-Ticket-Copy-3" transform="translate(54.000000, 477.000000)"><g id="Group"><polygon id="Fill-17" fill="#CCE4FF" points="-3.59945991e-14 61.0339561 53.6090811 61.0339561 53.6090811 -1.02450348e-14 -3.59945991e-14 -1.02450348e-14"></polygon><polygon id="Stroke-19" stroke="#0070FF" stroke-width="1.57684792" stroke-linecap="round" stroke-linejoin="round" points="-3.59945991e-14 61.0339561 53.6090811 61.0339561 53.6090811 -1.02450348e-14 -3.59945991e-14 -1.02450348e-14"></polygon><polygon id="Fill-20" fill="#0070FF" points="-3.59945991e-14 61.0339537 53.6090811 61.0339537 53.6090811 52.2487001 -3.59945991e-14 52.2487001"></polygon><path d="M40.9194196,3.96944189 L48.3458654,3.96944189 C49.1144178,3.96944189 49.7382335,4.59088385 49.7382335,5.35651185 C49.7382335,6.1221398 49.1144178,6.74358181 48.3458654,6.74358181 L40.9194196,6.74358181 C40.1508672,6.74358181 39.5270516,6.1221398 39.5270516,5.35651185 C39.5270516,4.59088385 40.1508672,3.96944189 40.9194196,3.96944189" id="Fill-21" fill="#0070FF"></path><path d="M42.4699862,55.2554068 L49.896432,55.2554068 C50.6649844,55.2554068 51.2888,55.8768486 51.2888,56.6424764 C51.2888,57.4081042 50.6649844,58.0295461 49.896432,58.0295461 L42.4699862,58.0295461 C41.7014337,58.0295461 41.0776181,57.4081042 41.0776181,56.6424764 C41.0776181,55.8768486 41.7014337,55.2554068 42.4699862,55.2554068" id="Fill-23" fill="#FFFFFF"></path><path d="M4.03135519,55.2554068 L18.6526706,55.2554068 C19.4212229,55.2554068 20.0435916,55.8768486 20.0435916,56.6424764 C20.0435916,57.4081042 19.4212229,58.0295461 18.6526706,58.0295461 L4.03135519,58.0295461 C3.26280259,58.0295461 2.63898685,57.4081042 2.63898685,56.6424764 C2.63898685,55.8768486 3.26280259,55.2554068 4.03135519,55.2554068" id="Fill-24" fill="#FFFFFF"></path></g><path d="M14.5168421,1.44186047 L52.1052632,1.44186047 L52.1052632,1.44186047 L52.1052632,15.7897674 C52.1052632,19.8104004 48.8458961,23.0697674 44.8252632,23.0697674 L14.5168421,23.0697674 C10.4962091,23.0697674 7.23684211,19.8104004 7.23684211,15.7897674 L7.23684211,8.72186047 C7.23684211,4.70122749 10.4962091,1.44186047 14.5168421,1.44186047 Z" id="Rectangle" fill="#28A745"></path><path d="M17.5678424,16.2209302 L17.5678424,11.4002259 L17.6218103,11.4002259 L20.9498294,16.2209302 L23.0365872,16.2209302 L23.0365872,7.0454633 L20.5360756,7.0454633 L20.5360756,11.8482468 L20.4641185,11.8482468 L17.1900673,7.0454633 L15.0673308,7.0454633 L15.0673308,16.2209302 L17.5678424,16.2209302 Z M31.9294751,16.2209302 L31.9294751,14.2137968 L27.8099272,14.2137968 L27.8099272,12.6367635 L31.6056678,12.6367635 L31.6056678,10.6296301 L27.8099272,10.6296301 L27.8099272,9.05259669 L31.9474644,9.05259669 L31.9474644,7.0454633 L25.3094156,7.0454633 L25.3094156,16.2209302 L31.9294751,16.2209302 Z M39.0054432,16.2209302 L40.5705116,11.0955717 L40.6424688,11.0955717 L42.2075372,16.2209302 L44.600113,16.2209302 L47.3164961,7.0454633 L44.5281559,7.0454633 L43.2689054,12.7084468 L43.1969482,12.7084468 L41.703837,7.0454633 L39.5091434,7.0454633 L38.0160321,12.690526 L37.944075,12.690526 L36.6848245,7.0454633 L33.8964843,7.0454633 L36.6128674,16.2209302 L39.0054432,16.2209302 Z" id="NEW" fill="#FFFFFF" fill-rule="nonzero"></path></g></g></g></svg> 