<?xml version="1.0" encoding="UTF-8"?> <svg xmlns="http://www.w3.org/2000/svg" xmlns:xlink="http://www.w3.org/1999/xlink" width="76px" height="72px" viewBox="0 0 76 72" version="1.1"><title>Icon/New Ticket Copy</title><g id="Admin" stroke="none" stroke-width="1" fill="none" fill-rule="evenodd"><g id="iPad-Air/mini-full-screen" transform="translate(-428.000000, -471.000000)"><g id="Show-Tickets-on-screen" transform="translate(23.000000, 306.000000)"><g id="Group-2" transform="translate(369.735474, 151.279999)"><g id="Icon/New-Ticket-Copy" transform="translate(31.000000, 5.000000)"><path d="M5.96276914,48.8349176 C5.39721484,49.3082041 5.18168246,49.4238315 5.31617198,49.1818 C7.27594476,45.6549319 8.73756596,40.7459754 7.08252632,37.330521 L55.2631579,10.795468 C59.1754521,14.6255832 63.1910206,15.7847891 67.3098632,14.2730855 L78.6527368,35.8699811 C75.9871044,37.2473846 74.9750989,41.0446869 75.6167202,47.261888 L5.96276914,48.8349176 Z" id="Path-2" fill="#99A6C6"></path><g id="noun_Ticket_631106" transform="translate(4.421053, 8.837209)" fill="#6879AA" fill-rule="nonzero"><g id="Group" transform="translate(28.193827, 12.062791)"><path d="M5.3066994,19.022093 C5.5078573,18.7437209 5.6006994,18.4034884 5.53880467,18.0477907 L5.09006782,15.7125581 L6.82312046,17.3518605 C7.22543625,17.7230233 7.81343625,17.8003488 8.27764677,17.5374419 L10.3820678,16.3930233 L9.36080467,18.5581395 C9.28343625,18.7127907 9.25248888,18.8674419 9.25248888,19.022093 L12.2389099,19.022093 C12.1924889,18.9447674 12.1305941,18.8674419 12.0532257,18.8055814 L12.0222784,18.7746512 L14.2969099,13.9495349 C14.5290152,13.4546512 14.4206994,12.8824419 14.0183836,12.5112791 C13.6160678,12.1401163 13.0280678,12.0627907 12.5638573,12.3256977 L7.89080467,14.892907 L3.99143625,11.2586047 C3.58912046,10.8874419 3.00112046,10.8101163 2.53690993,11.0730233 C2.05722572,11.3359302 1.80964677,11.8772093 1.90248888,12.4030233 L2.90827835,17.6302326 L1.06690993,18.6354651 C0.896699404,18.7282558 0.757436246,18.8674419 0.649120456,19.022093 L5.3066994,19.022093 Z" id="Path"></path><path d="M18.5212257,11.6452326 L23.8132257,12.3102326 L24.8035415,17.5374419 C24.9118573,18.0632558 25.3451205,18.480814 25.8712257,18.5426744 C25.9176468,18.5426744 26.7686994,18.6045349 27.1555415,17.8312791 L29.4301731,13.0216279 L34.7221731,13.6866279 C35.2792257,13.7484884 35.7743836,13.4701163 36.0064889,12.9752326 C36.2385941,12.4803488 36.1302784,11.9081395 35.7279626,11.5369767 L31.8440678,7.8872093 L34.1186994,3.07755814 C34.3508047,2.58267442 34.2424889,2.01046512 33.8401731,1.63930233 C33.453331,1.26813953 32.8498573,1.19081395 32.3856468,1.45372093 L27.7125941,4.02093023 L23.8286994,0.371162791 C23.4263836,-2.59861577e-14 22.8383836,-0.0773255814 22.3741731,0.185581395 C21.8944889,0.448488372 21.6469099,0.989767442 21.739752,1.5155814 L22.7300678,6.7427907 L18.0724889,9.31 C17.5928047,9.57290698 17.3452257,10.114186 17.4380678,10.64 C17.5463836,11.165814 17.9796468,11.567907 18.5212257,11.6452326 Z M24.7416468,8.49034884 C25.221331,8.22744186 25.4689099,7.68616279 25.3760678,7.16034884 L24.927331,4.82511628 L26.6603836,6.4644186 C27.0472257,6.8355814 27.6506994,6.91290698 28.1149099,6.65 L30.2038573,5.5055814 L29.1825941,7.65523256 C28.9504889,8.15011628 29.0588047,8.72232558 29.4611205,9.09348837 L31.1941731,10.7327907 L28.8266994,10.4389535 C28.2696468,10.377093 27.7744889,10.6554651 27.5423836,11.1503488 L26.5211205,13.3 L26.0723836,10.9647674 C25.9640678,10.4389535 25.5308047,10.0213953 25.0046994,9.95953488 L22.6372257,9.66569767 L24.7416468,8.49034884 Z" id="Shape"></path></g><path d="M62.5446316,3.29406977 L61.446,3.8972093 C56.3242105,6.32523256 53.0902105,2.79918605 52.2236842,1.22174419 L51.6202105,0.12372093 L0.0773684211,28.3939535 L0.680842105,29.4919767 C2.38294737,32.8633721 1.36168421,35.4305814 0.0154736842,37.0234884 L0.0154736842,38.2606977 L2.46031579,38.2606977 C2.46031579,38.2606977 5.53957895,35.6006977 3.41968421,29.4301163 L50.7072632,3.47965116 C51.9142105,5.10348837 55.6588421,8.47488372 61.5233684,6.61906977 L72.1537895,25.9813953 C69.1054737,28.1001163 68.3936842,31.255 68.4555789,33.6984884 C68.4555789,33.7603488 69.1673684,35.9563953 71.0706316,36.7760465 C71.0706316,36.7760465 71.0551579,33.775814 71.0551579,33.6984884 C71.0087368,31.6261628 71.7205263,29.0898837 74.4129474,27.4969767 L75.5115789,26.8938372 L62.5446316,3.29406977 Z" id="Path"></path></g><path d="M11.9257895,37.5736047 L11.9257895,38.8262791 C11.9257895,42.275 9.12505263,45.074186 5.67442105,45.074186 L4.452,45.0432558 L4.42105263,51.0901163 L4.42105263,73.0969767 L5.67442105,73.0969767 C9.12505263,73.0969767 11.9257895,75.8961628 11.9257895,79.3448837 L11.9257895,80.5975581 L71.7934737,80.5975581 L71.7934737,79.3448837 C71.7934737,75.8961628 74.5942105,73.0969767 78.0448421,73.0969767 L79.2982105,73.0969767 L79.2982105,45.0896512 C75.5690526,45.0896512 73.2789474,42.6306977 73.2789474,42.6306977 C73.2789474,42.6306977 71.7934737,41.1460465 71.7934737,38.810814 L71.7934737,37.5581395 L11.9257895,37.5736047 Z" id="Shape" fill="#1E75FF" fill-rule="nonzero"></path><path d="M69.3950526,78.0767442 L14.3396842,78.0767442 C13.7826316,74.2413953 10.7497895,71.2102326 6.92778947,70.6689535 L6.92778947,47.4867442 C10.7652632,46.93 13.7981053,43.8988372 14.3396842,40.0789535 L69.3795789,40.0789535 C69.9366316,43.9143023 72.9694737,46.9454651 76.7914737,47.4867442 L76.7914737,70.6689535 L76.8069474,70.6689535 C72.9694737,71.2256977 69.9366316,74.2568605 69.3950526,78.0767442 Z" id="Path" fill="#CCE4FF"></path><path d="M50.022,53.6418605 L44.6990526,53.6418605 L43.0588421,48.5847674 C42.8886316,48.0744186 42.4089474,47.7187209 41.8673684,47.7187209 C41.3257895,47.7187209 40.8461053,48.0744186 40.6758947,48.5847674 L39.0202105,53.6418605 L33.6972632,53.6418605 C33.1556842,53.6418605 32.676,53.9975581 32.5057895,54.507907 C32.3355789,55.0182558 32.5212632,55.5904651 32.9545263,55.8997674 L37.2562105,59.0237209 L35.616,64.080814 C35.4457895,64.5911628 35.6314737,65.1633721 36.0647368,65.4726744 C36.498,65.7974419 37.1014737,65.7974419 37.5347368,65.4726744 L41.8364211,62.3487209 L46.1381053,65.4726744 C46.7725263,65.8593023 47.3914737,65.6273256 47.6081053,65.4726744 C48.0413684,65.147907 48.2270526,64.5911628 48.0568421,64.080814 L46.4166316,59.0237209 L50.7183158,55.8997674 C51.1515789,55.575 51.3372632,55.0182558 51.1670526,54.507907 C51.0432632,53.982093 50.5635789,53.6418605 50.022,53.6418605 Z" id="Shape" fill="#28A745" fill-rule="nonzero"></path><path d="M65.6968421,48.5693023 C65.5266316,48.0589535 65.0469474,47.7032558 64.5053684,47.7032558 C63.9637895,47.7032558 63.4841053,48.0589535 63.3138947,48.5693023 L61.6582105,53.6418605 L56.3352632,53.6418605 C55.7936842,53.6418605 55.314,53.9975581 55.1437895,54.507907 C54.9735789,55.0182558 55.1592632,55.5904651 55.5925263,55.8997674 L59.8942105,59.0237209 L58.2694737,64.0962791 C58.0992632,64.6066279 58.2849474,65.1788372 58.7182105,65.4881395 C59.1514737,65.812907 59.7549474,65.812907 60.1882105,65.4881395 L64.4898947,62.364186 L68.7915789,65.4881395 C69.4414737,65.8747674 70.0449474,65.6427907 70.2615789,65.4881395 C70.6948421,65.1633721 70.8805263,64.6066279 70.7103158,64.0962791 L69.0701053,59.039186 L73.3717895,55.9152326 C73.8050526,55.5904651 73.9907368,55.0337209 73.8205263,54.5233721 C73.6503158,54.0130233 73.1706316,53.6573256 72.6290526,53.6573256 L67.3061053,53.6573256 L65.6968421,48.5693023 Z M66.8883158,57.5390698 C66.4550526,57.8638372 66.2693684,58.4205814 66.4395789,58.9309302 L67.1823158,61.2043023 L65.2481053,59.7969767 C65.0314737,59.6423256 64.7684211,59.565 64.5053684,59.565 C64.2423158,59.565 63.9947368,59.6423256 63.7626316,59.7969767 L61.8284211,61.2043023 L62.5711579,58.9309302 C62.7413684,58.4205814 62.5556842,57.8483721 62.1224211,57.5390698 L60.1882105,56.1317442 L62.5711579,56.1317442 C63.1127368,56.1317442 63.5924211,55.7760465 63.7626316,55.2656977 L64.5053684,52.9923256 L65.2481053,55.2656977 C65.4183158,55.7760465 65.898,56.1317442 66.4395789,56.1317442 L68.8225263,56.1317442 L66.8883158,57.5390698 Z" id="Shape" fill="#28A745" fill-rule="nonzero"></path><path d="M27.384,53.6418605 L22.0610526,53.6418605 L20.4208421,48.5847674 C20.2506316,48.0744186 19.7709474,47.7187209 19.2293684,47.7187209 C18.6877895,47.7187209 18.2081053,48.0744186 18.0378947,48.5847674 L16.3822105,53.6418605 L11.0592632,53.6418605 C10.5176842,53.6418605 10.038,53.9975581 9.86778947,54.507907 C9.69757895,55.0182558 9.88326316,55.5904651 10.3165263,55.8997674 L14.6336842,59.0237209 L12.9934737,64.080814 C12.8232632,64.5911628 13.0089474,65.1633721 13.4422105,65.4726744 C13.8754737,65.7974419 14.4789474,65.7974419 14.9122105,65.4726744 L19.2138947,62.3487209 L23.5155789,65.4726744 C24.2428421,65.8283721 24.7689474,65.6273256 24.9855789,65.4726744 C25.4188421,65.147907 25.6045263,64.5911628 25.4343158,64.080814 L23.7941053,59.0237209 L28.0957895,55.8997674 C28.5290526,55.575 28.7147368,55.0182558 28.5445263,54.507907 C28.4052632,53.982093 27.9255789,53.6418605 27.384,53.6418605 Z M21.6123158,57.5390698 C21.1790526,57.8638372 20.9933684,58.4205814 21.1635789,58.9309302 L21.9063158,61.2043023 L19.9721053,59.7969767 C19.7554737,59.6423256 19.4924211,59.565 19.2293684,59.565 C18.9663158,59.565 18.7187368,59.6423256 18.4866316,59.7969767 L16.5524211,61.2043023 L17.2951579,58.9309302 C17.4653684,58.4205814 17.2796842,57.8483721 16.8464211,57.5390698 L14.9122105,56.1317442 L17.2951579,56.1317442 C17.8367368,56.1317442 18.3164211,55.7760465 18.4866316,55.2656977 L19.2293684,52.9923256 L19.9721053,55.2656977 C20.1423158,55.7760465 20.622,56.1317442 21.1635789,56.1317442 L23.5465263,56.1317442 L21.6123158,57.5390698 Z" id="Shape" fill="#28A745" fill-rule="nonzero"></path></g></g></g></g></g></svg> 