<?xml version="1.0" encoding="UTF-8"?> <svg xmlns="http://www.w3.org/2000/svg" xmlns:xlink="http://www.w3.org/1999/xlink" width="88px" height="69px" viewBox="0 0 88 69" version="1.1"><title>Icon/ Ticket on number Copy 2</title><g id="Admin" stroke="none" stroke-width="1" fill="none" fill-rule="evenodd"><g id="iPad-Air/mini-full-screen" transform="translate(-335.000000, -605.000000)"><g id="Icon/-Ticket-on-number-Copy-2" transform="translate(331.000000, 587.000000)"><rect id="Rectangle" fill="#CCE4FF" x="7.81578947" y="20.8372093" width="36.4736842" height="44.2790698"></rect><rect id="Rectangle" fill="#99A6C6" x="54.7105263" y="41.6744186" width="33.8684211" height="41.6744186"></rect><g id="noun_arrange_2221160" transform="translate(4.752458, 18.232558)" fill-rule="nonzero"><path d="M5.90935681,48.7036087 L23.4717502,48.7036087 L23.4717502,43.8760225 L5.90935681,43.8760225 C5.35593362,43.8729518 4.90805428,43.4251777 4.90498295,42.8718845 L4.90498295,5.83172414 C4.9080595,5.27843313 5.3559358,4.83066204 5.90935681,4.82758621 L35.1520882,4.82758621 C35.703654,4.83136454 36.1483546,5.28027713 36.1468046,5.83172414 L36.1468046,15.5760385 L40.9755737,15.5760385 L40.9755737,5.83172414 C40.9774499,4.28613836 40.3648375,2.80316191 39.2725917,1.70936179 C38.180346,0.615561673 36.6980382,0.00063676615 35.1520882,0 L5.90935681,0 C2.68804863,0.000533071512 0.0767956367,2.61117266 0.0762624399,5.83172414 L0.0762624399,42.8718845 C0.0767956367,46.092436 2.68804863,48.7030756 5.90935681,48.7036087 Z" id="Path" fill="#1E75FF"></path><path d="M61.0254988,19.9700401 L61.0254988,24.7976263 L81.1931553,24.7976263 C81.4570549,24.79729 81.7102396,24.901964 81.8968259,25.0885445 C82.0834122,25.275125 82.1880592,25.5282716 82.1876689,25.7921091 C82.1874088,25.9680007 82.1874088,38.3179392 82.1876689,62.8419246 C82.188072,63.105766 82.0834292,63.3589201 81.8968401,63.5455034 C81.710251,63.7320867 81.4570588,63.8367566 81.1931553,63.8364074 L51.9504239,63.8364074 C51.6864893,63.8367976 51.4332524,63.7321474 51.2466222,63.5455611 C51.059992,63.3589747 50.9553171,63.1057973 50.9557075,62.8419246 L50.9557075,53.0976103 L46.126987,53.0976103 L46.126987,62.8419246 C46.126987,66.0573005 48.7342926,68.6639936 51.9504239,68.6639936 L81.1931553,68.6639936 C84.4092185,68.6639936 87.0163895,66.0572323 87.0163895,62.8419246 L87.0163895,25.7921091 C87.0163895,22.5768102 84.4092097,19.9700401 81.1931553,19.9700401 L61.0254988,19.9700401 Z" id="Path" fill="#6879AA"></path><path d="M26.3257872,9.98439246 L55.5662395,9.98439246 C58.7847283,9.98439246 61.3938291,12.5928803 61.3938291,15.8106132 L61.3938291,52.8582177 C61.3938291,56.0759505 58.7847283,58.6844384 55.5662395,58.6844384 L26.3258355,58.6844384 C23.1073146,58.6844384 20.4981879,56.0759246 20.4981879,52.8581597 L20.4981879,15.8106132 C20.4981879,14.2654017 21.1121657,12.7834782 22.2050528,11.6908496 C23.29794,10.598221 24.7802127,9.98439246 26.3257872,9.98439246 Z" id="Path" fill="#28A745"></path></g><path d="M54.4746236,33.5041488 L62.0526311,33.5041488 C62.8383454,33.5041488 63.4748921,34.0876232 63.4748921,34.8064744 C63.4748921,35.5253256 62.8383454,36.1088 62.0526311,36.1088 L54.4746236,36.1088 C53.6903862,36.1088 53.0538395,35.5253256 53.0538395,34.8064744 C53.0538395,34.0876232 53.6903862,33.5041488 54.4746236,33.5041488" id="Path-Copy" fill="#FFFFFF" fill-rule="nonzero" opacity="0.236235119" transform="translate(58.264366, 34.806474) scale(1, -1) translate(-58.264366, -34.806474) "></path><path d="M30.8569974,33.5041488 L43.9888236,33.5041488 C44.6790829,33.5041488 45.23805,34.0876232 45.23805,34.8064744 C45.23805,35.5253256 44.6790829,36.1088 43.9888236,36.1088 L30.8569974,36.1088 C30.166738,36.1088 29.6064711,35.5253256 29.6064711,34.8064744 C29.6064711,34.0876232 30.166738,33.5041488 30.8569974,33.5041488" id="Path-Copy-2" fill="#FFFFFF" fill-rule="nonzero" opacity="0.236235119" transform="translate(37.422261, 34.806474) scale(1, -1) translate(-37.422261, -34.806474) "></path><path d="M60.9764393,69.9692651 C62.356958,69.9692651 63.4748921,71.1362138 63.4748921,72.5739163 C63.4748921,73.5323846 63.4499024,74.4006016 63.3999229,75.1785674 L27.1272245,75.1785674 C27.0432134,74.4006016 27.0012079,73.5323846 27.0012079,72.5739163 C27.0012079,71.1362138 28.1217419,69.9692651 29.5022605,69.9692651 L60.9764393,69.9692651 Z" id="Path-Copy-2" fill="#FFFFFF" fill-rule="nonzero" opacity="0.236235119" transform="translate(45.238050, 72.573916) scale(1, -1) translate(-45.238050, -72.573916) "></path></g></g></g></svg> 