<?xml version="1.0" encoding="UTF-8"?> <svg xmlns="http://www.w3.org/2000/svg" xmlns:xlink="http://www.w3.org/1999/xlink" width="75px" height="62px" viewBox="0 0 75 62" version="1.1"><title>Icon/ Ticket on number CopyTicket on Num</title><g id="Admin" stroke="none" stroke-width="1" fill="none" fill-rule="evenodd"><g id="iPad-Air/mini-full-screen" transform="translate(-591.000000, -605.000000)"><g id="Icon/-Ticket-on-number-Copy" transform="translate(590.000000, 604.000000)"><g id="Group" transform="translate(29.514801, 5.675741)"><polygon id="Fill-17" fill="#99A6C6" points="1.7408297e-14 51.1868004 44.7873962 51.1868004 44.7873962 0 1.7408297e-14 0"></polygon><polygon id="Stroke-19" stroke="#6879AA" stroke-width="1.45040002" stroke-linecap="round" stroke-linejoin="round" points="1.7408297e-14 51.1868004 44.7873962 51.1868004 44.7873962 0 1.7408297e-14 0"></polygon><polygon id="Fill-20" fill="#6879AA" points="1.7408297e-14 51.1854002 44.7873962 51.1854002 44.7873962 43.8171995 1.7408297e-14 43.8171995"></polygon><path d="M4.61943675,3.32724004 L10.8242386,3.32724004 C11.466839,3.32724004 11.9876389,3.84804011 11.9876389,4.49064016 C11.9876389,5.13324025 11.466839,5.65404029 10.8242386,5.65404029 L4.61943675,5.65404029 C3.97683653,5.65404029 3.45603638,5.13324025 3.45603638,4.49064016 C3.45603638,3.84804011 3.97683653,3.32724004 4.61943675,3.32724004" id="Fill-22" fill="#6879AA"></path><path d="M10.6637991,21.9087408 L34.1236017,21.9087408 C34.766202,21.9087408 35.2870026,22.4295405 35.2870026,23.0721402 C35.2870026,23.71474 34.766202,24.2341398 34.1236017,24.2341398 L10.6637991,24.2341398 C10.0211991,24.2341398 9.50039902,23.71474 9.50039902,23.0721402 C9.50039902,22.4295405 10.0211991,21.9087408 10.6637991,21.9087408" id="Fill-23" fill="#6879AA"></path><path d="M16.2856367,26.9494409 L28.5020377,26.9494409 C29.1432382,26.9494409 29.6640381,27.4702411 29.6640381,28.1128414 C29.6640381,28.7554416 29.1432382,29.2762418 28.5020377,29.2762418 L16.2856367,29.2762418 C15.6430367,29.2762418 15.1222366,28.7554416 15.1222366,28.1128414 C15.1222366,27.4702411 15.6430367,26.9494409 16.2856367,26.9494409" id="Fill-24" fill="#6879AA"></path><path d="M3.3669966,46.3376203 L15.5819977,46.3376203 C16.2245981,46.3376203 16.7453979,46.8584199 16.7453979,47.5010194 C16.7453979,48.143619 16.2245981,48.6644186 15.5819977,48.6644186 L3.3669966,48.6644186 C2.72439655,48.6644186 2.2035965,48.143619 2.2035965,47.5010194 C2.2035965,46.8584199 2.72439655,46.3376203 3.3669966,46.3376203" id="Fill-26" fill="#99A6C6"></path><path d="M34.184781,3.32724004 L40.3895828,3.32724004 C41.0321832,3.32724004 41.5529831,3.84804011 41.5529831,4.49064016 C41.5529831,5.13324025 41.0321832,5.65404029 40.3895828,5.65404029 L34.184781,5.65404029 C33.5421808,5.65404029 33.0213806,5.13324025 33.0213806,4.49064016 C33.0213806,3.84804011 33.5421808,3.32724004 34.184781,3.32724004" id="Fill-21" fill="#6879AA"></path><path d="M35.4808961,46.3376203 L41.685698,46.3376203 C42.3282983,46.3376203 42.8490982,46.8584199 42.8490982,47.5010194 C42.8490982,48.143619 42.3282983,48.6644186 41.685698,48.6644186 L35.4808961,48.6644186 C34.8382959,48.6644186 34.3174957,48.143619 34.3174957,47.5010194 C34.3174957,46.8584199 34.8382959,46.3376203 35.4808961,46.3376203" id="Fill-25" fill="#CECECE"></path><path d="M30.2472771,39.8462388 C30.2472771,38.8270388 31.0732769,38.0024389 32.0910766,38.0024389 L45.5072739,38.0024389 L45.5072739,51.1890383 C45.5072739,51.5908383 45.182474,51.9156385 44.7806738,51.9156385 L30.2472771,51.9156385 L30.2472771,39.8462388 Z" id="Fill-27" fill="#6879AA"></path><text id="03" font-family="Inter-Black, Inter" font-size="9.8" font-weight="800" fill="#CECECE"><tspan x="30.9545563" y="46.9699201">03</tspan></text></g><g id="Group-29" transform="translate(1.400000, 2.095941)"><polygon id="Fill-1" fill="#CCE4FF" points="0.76015625 59.325 52.6147583 59.325 52.6147583 0.0615982056 0.76015625 0.0615982056"></polygon><polygon id="Stroke-2" stroke="#0070FF" stroke-width="1.51619992" stroke-linecap="round" stroke-linejoin="round" points="0.76015625 59.325 52.6147583 59.325 52.6147583 0.0615982056 0.76015625 0.0615982056"></polygon><polygon id="Fill-4" fill="#0070FF" points="0.76015625 59.3249947 52.6147583 59.3249947 52.6147583 50.7947968 0.76015625 50.7947968"></polygon><g id="Group-28" transform="translate(2.800000, 3.800000)"><path d="M37.5370808,0.115660048 L44.7204804,0.115660048 C45.4652805,0.115660048 46.0686806,0.719060025 46.0686806,1.46246005 C46.0686806,2.20726004 45.4652805,2.81065998 44.7204804,2.81065998 L37.5370808,2.81065998 C36.7936809,2.81065998 36.1902809,2.20726004 36.1902809,1.46246005 C36.1902809,0.719060025 36.7936809,0.115660048 37.5370808,0.115660048" id="Fill-5" fill="#0070FF"></path><path d="M3.30680011,0.115660048 L10.4902002,0.115660048 C11.2336007,0.115660048 11.8384005,0.719060025 11.8384005,1.46246005 C11.8384005,2.20726004 11.2336007,2.81065998 10.4902002,2.81065998 L3.30680011,2.81065998 C2.56340014,2.81065998 1.96000013,2.20726004 1.96000013,1.46246005 C1.96000013,0.719060025 2.56340014,0.115660048 3.30680011,0.115660048" id="Fill-7" fill="#0070FF"></path><path d="M10.30414,21.628339 L37.4655413,21.628339 C38.2103407,21.628339 38.8123409,22.231739 38.8123409,22.9751389 C38.8123409,23.7185387 38.2103407,24.3219387 37.4655413,24.3219387 L10.30414,24.3219387 C9.5607399,24.3219387 8.95733986,23.7185387 8.95733986,22.9751389 C8.95733986,22.231739 9.5607399,21.628339 10.30414,21.628339" id="Fill-9" fill="#0070FF"></path><path d="M16.8147,27.464801 L30.9574997,27.464801 C31.7008993,27.464801 32.3028996,28.068201 32.3028996,28.8116009 C32.3028996,29.5550007 31.7008993,30.1584007 30.9574997,30.1584007 L16.8147,30.1584007 C16.0713,30.1584007 15.4679001,29.5550007 15.4679001,28.8116009 C15.4679001,28.068201 16.0713,27.464801 16.8147,27.464801" id="Fill-11" fill="#0070FF"></path><path d="M1.85765992,49.9126793 L16.0004595,49.9126793 C16.7438598,49.9126793 17.34586,50.5160792 17.34586,51.2594791 C17.34586,52.002879 16.7438598,52.606279 16.0004595,52.606279 L1.85765992,52.606279 C1.1128599,52.606279 0.509459925,52.002879 0.509459925,51.2594791 C0.509459925,50.5160792 1.1128599,49.9126793 1.85765992,49.9126793" id="Fill-13" fill="#FFFFFF"></path><path d="M28.1535789,41.700502 C28.1535789,40.4698319 29.3659448,39.4741386 30.8618809,39.4741386 L50.5535789,39.4741386 L50.5535789,55.4305886 C50.5535789,55.8954711 50.0953455,56.2741386 49.5261509,56.2741386 L28.1535789,56.2741386 L28.1535789,41.700502 Z" id="Fill-15" fill="#28A745"></path><text id="02" font-family="LucidaGrande-Bold, Lucida Grande" font-size="11.2" font-weight="bold" fill="#FFFFFF"><tspan x="32.1096989" y="51.9284203">02</tspan></text></g></g></g></g></g></svg> 